D:\school\WTK\thesis\model\3dpredictsim\Results\batch_windlass\Pog_s1_tmt_bCst_d00_k1000_WL30_ig24_pas_GRF.mot
nRows=27
nColumns=19

name D:\school\WTK\thesis\model\3dpredictsim\Results\batch_windlass\Pog_s1_tmt_bCst_d00_k1000_WL30_ig24_pas_GRF.mot
datacolumns 19
datarows 27
range 0.0000000000 0.2897640719
endheader
time 	ground_force_vx	ground_force_vy	ground_force_vz	ground_force_px	ground_force_py	ground_force_pz	1_ground_force_vx	1_ground_force_vy	1_ground_force_vz	1_ground_force_px	1_ground_force_py	1_ground_force_pz	ground_torque_x	ground_torque_y	ground_torque_z	1_ground_torque_x	1_ground_torque_y	1_ground_torque_z
        0.0000000000	      -77.2348758996	       65.7821662568	       31.9438839801	        0.1653666867	        0.0000000000	        0.0388877662	       79.7757010287	      436.3751438534	       -4.4187263419	       -0.3204461544	        0.0000000000	       -0.0299345269	        0.0000000000	        0.0000000000	        0.0000000000	        0.0000000000	        0.0000000000	        0.0000000000	
        0.0111447720	     -120.0059413337	      145.1278645568	       81.2960395681	        0.1723381201	        0.0000000000	        0.0366206244	       53.4876237362	      339.3350925705	      -12.3511435947	       -0.3144458182	        0.0000000000	       -0.0275400292	        0.0000000000	        0.0000000000	        0.0000000000	        0.0000000000	        0.0000000000	        0.0000000000	
        0.0222895440	      -48.9962288335	      295.1144286374	       31.9242460558	        0.1778347744	        0.0000000000	        0.0340158502	       23.9201479755	      233.1200554027	      -11.8135413005	       -0.3039957034	        0.0000000000	       -0.0223388046	        0.0000000000	        0.0000000000	        0.0000000000	        0.0000000000	        0.0000000000	        0.0000000000	
        0.0334343160	      -42.8855253025	      466.7088111248	        3.5851857549	        0.1819169995	        0.0000000000	        0.0341824570	        6.6237169918	      157.2017463640	      -10.5690970060	       -0.2907537545	        0.0000000000	       -0.0146874254	        0.0000000000	        0.0000000000	        0.0000000000	        0.0000000000	        0.0000000000	        0.0000000000	
        0.0445790880	      -70.2965427084	      673.8314989638	       -7.9486458514	        0.1902179693	        0.0000000000	        0.0365985417	       -2.8531891280	      126.1110666173	       -9.0601870645	       -0.2911169475	        0.0000000000	       -0.0147898019	        0.0000000000	        0.0000000000	        0.0000000000	        0.0000000000	        0.0000000000	        0.0000000000	
        0.0557238600	      -94.6957699571	      803.2201262136	      -14.5842193742	        0.1968064299	        0.0000000000	        0.0384961431	       -6.5681040991	       84.4079267630	       -7.5832643881	       -0.2908030289	        0.0000000000	       -0.0147749920	        0.0000000000	        0.0000000000	        0.0000000000	        0.0000000000	        0.0000000000	        0.0000000000	
        0.0668686320	     -106.2800988250	      854.4508866060	      -17.6244051270	        0.2020829296	        0.0000000000	        0.0398787252	      -12.7737318513	       38.6699541670	       -4.3727317436	       -0.2914407643	        0.0000000000	       -0.0146792376	        0.0000000000	        0.0000000000	        0.0000000000	        0.0000000000	        0.0000000000	        0.0000000000	
        0.0780134040	     -113.8304054278	      871.9512715489	      -17.9604293981	        0.2064220888	        0.0000000000	        0.0407985464	        0.2018287117	       -0.2002802758	       -0.0100996854	        0.0000000000	        0.0000000000	        0.0000000000	        0.0000000000	        0.0000000000	        0.0000000000	        0.0000000000	        0.0000000000	        0.0000000000	
        0.0891581760	     -107.3730105772	      869.7174071519	      -17.1348136629	        0.2102968920	        0.0000000000	        0.0410851844	        0.0000467426	       -0.0000373754	       -0.0000049704	        0.0000000000	        0.0000000000	        0.0000000000	        0.0000000000	        0.0000000000	        0.0000000000	        0.0000000000	        0.0000000000	        0.0000000000	
        0.1003029480	      -94.7671928137	      836.3629150499	      -16.5187742411	        0.2143499690	        0.0000000000	        0.0411254307	        0.0001748627	       -0.0001245191	       -0.0000182270	        0.0000000000	        0.0000000000	        0.0000000000	        0.0000000000	        0.0000000000	        0.0000000000	        0.0000000000	        0.0000000000	        0.0000000000	
        0.1114477200	      -83.0551326443	      794.5600030214	      -16.5778073391	        0.2188916712	        0.0000000000	        0.0410349244	        0.0012338182	       -0.0008003295	       -0.0001256643	        0.0000000000	        0.0000000000	        0.0000000000	        0.0000000000	        0.0000000000	        0.0000000000	        0.0000000000	        0.0000000000	        0.0000000000	
        0.1225924920	      -71.3131269438	      749.5005586447	      -16.4831306394	        0.2231294579	        0.0000000000	        0.0409079720	        0.0086642905	       -0.0052438594	       -0.0008454659	        0.0000000000	        0.0000000000	        0.0000000000	        0.0000000000	        0.0000000000	        0.0000000000	        0.0000000000	        0.0000000000	        0.0000000000	
        0.1337372640	      -60.1625938830	      706.9095723774	      -16.7790155311	        0.2269405152	        0.0000000000	        0.0408484393	       -0.0597480121	        0.0340627156	        0.0056594099	        0.0000000000	        0.0000000000	        0.0000000000	        0.0000000000	        0.0000000000	        0.0000000000	        0.0000000000	        0.0000000000	        0.0000000000	
        0.1448820359	      -50.0193133191	      671.1905767831	      -17.4491064802	        0.2305227403	        0.0000000000	        0.0408576381	       -0.0378411422	        0.0203700102	        0.0035699009	        0.0000000000	        0.0000000000	        0.0000000000	        0.0000000000	        0.0000000000	        0.0000000000	        0.0000000000	        0.0000000000	        0.0000000000	
        0.1560268079	      -40.9949896550	      642.8175646698	      -18.1932058748	        0.2341269038	        0.0000000000	        0.0409185216	       -0.0232162679	        0.0118264779	        0.0022252838	        0.0000000000	        0.0000000000	        0.0000000000	        0.0000000000	        0.0000000000	        0.0000000000	        0.0000000000	        0.0000000000	        0.0000000000	
        0.1671715799	      -33.4026804496	      620.6990433372	      -18.8872497090	        0.2378747204	        0.0000000000	        0.0410090760	       -0.0173849350	        0.0084184096	        0.0017054811	        0.0000000000	        0.0000000000	        0.0000000000	        0.0000000000	        0.0000000000	        0.0000000000	        0.0000000000	        0.0000000000	        0.0000000000	
        0.1783163519	      -27.1507280001	      603.5373911889	      -19.4299918134	        0.2416866443	        0.0000000000	        0.0411115191	       -0.0168192718	        0.0077899131	        0.0016833794	        0.0000000000	        0.0000000000	        0.0000000000	        0.0000000000	        0.0000000000	        0.0000000000	        0.0000000000	        0.0000000000	        0.0000000000	
        0.1894611239	      -21.9134746370	      590.7581007494	      -19.7607372226	        0.2457467844	        0.0000000000	        0.0412074541	       -0.0209126187	        0.0093251857	        0.0021246795	        0.0000000000	        0.0000000000	        0.0000000000	        0.0000000000	        0.0000000000	        0.0000000000	        0.0000000000	        0.0000000000	        0.0000000000	
        0.2006058959	      -18.9352961864	      582.7611809591	      -19.7585638408	        0.2500992291	        0.0000000000	        0.0412719021	       -0.0321934647	        0.0139029725	        0.0032989182	        0.0000000000	        0.0000000000	        0.0000000000	        0.0000000000	        0.0000000000	        0.0000000000	        0.0000000000	        0.0000000000	        0.0000000000	
        0.2117506679	      -16.7015912150	      578.8754133632	      -19.6020648539	        0.2546999578	        0.0000000000	        0.0412862451	       -0.0577201276	        0.0242566704	        0.0059281430	        0.0000000000	        0.0000000000	        0.0000000000	        0.0000000000	        0.0000000000	        0.0000000000	        0.0000000000	        0.0000000000	        0.0000000000	
        0.2228954399	      -14.6189458544	      577.3509314520	      -19.3585309859	        0.2595806009	        0.0000000000	        0.0412395253	       -0.1119964067	        0.0459710214	        0.0114578140	        0.0000000000	        0.0000000000	        0.0000000000	        0.0000000000	        0.0000000000	        0.0000000000	        0.0000000000	        0.0000000000	        0.0000000000	
        0.2340402119	      -12.7286770996	      576.9601948883	      -19.0928442102	        0.2646443516	        0.0000000000	        0.0411352090	       -0.2180876390	        0.0877061249	        0.0221205842	        0.0000000000	        0.0000000000	        0.0000000000	        0.0000000000	        0.0000000000	        0.0000000000	        0.0000000000	        0.0000000000	        0.0000000000	
        0.2451849839	      -10.6191800336	      576.8516761765	      -18.8559944687	        0.2698633669	        0.0000000000	        0.0409838827	       -0.3974181942	        0.1570660982	        0.0398429599	        0.0000000000	        0.0000000000	        0.0000000000	        0.0000000000	        0.0000000000	        0.0000000000	        0.0000000000	        0.0000000000	        0.0000000000	
        0.2563297559	       -8.3372324985	      576.2474668994	      -18.5544028597	        0.2751934085	        0.0000000000	        0.0407955370	       -0.6455149691	        0.2515438852	        0.0636783989	        0.0000000000	        0.0000000000	        0.0000000000	        0.0000000000	        0.0000000000	        0.0000000000	        0.0000000000	        0.0000000000	        0.0000000000	
        0.2674745279	       -5.9619812727	      574.5625143488	      -18.1750550759	        0.2805439461	        0.0000000000	        0.0405824589	       -0.9161093720	        0.3531951243	        0.0884110209	        0.0000000000	        0.0000000000	        0.0000000000	        0.0000000000	        0.0000000000	        0.0000000000	        0.0000000000	        0.0000000000	        0.0000000000	
        0.2786192999	       -3.2688905932	      571.4273628815	      -17.7289441842	        0.2858852771	        0.0000000000	        0.0403532816	       -1.1397813798	        0.4360739058	        0.1068038316	        0.0000000000	        0.0000000000	        0.0000000000	        0.0000000000	        0.0000000000	        0.0000000000	        0.0000000000	        0.0000000000	        0.0000000000	
        0.2897640719	       -0.0866956043	      566.9279737019	      -16.6749877400	        0.2912855673	        0.0000000000	        0.0401086219	       -1.2638813276	        0.4808938952	        0.1136732530	        0.0000000000	        0.0000000000	        0.0000000000	        0.0000000000	        0.0000000000	        0.0000000000	        0.0000000000	        0.0000000000	        0.0000000000	
